<svg xmlns="http://www.w3.org/2000/svg" width="1513" height="976" fill="none"><g fill="#FFA320" clip-path="url(#a)"><path d="M96.86 272.901c1.328 2.559-2.588 5.255-1.26 9.877.86 2.967 3.276 4.617 4.133 5.198 3.534 2.408 8.604 2.847 12.76.537 5.688-3.158 6.225-9.58 6.291-10.587.111-1.712-.128-3.46-1.079-6.103-.195-.532-.581-1.623-1.229-3.038a189.723 189.723 0 0 1 20.259-21.489 189.06 189.06 0 0 1 14.798-12.135c2.135 1.078 3.685 1.486 5.239 1.61 1.012.084 7.45.47 11.392-4.697 2.882-3.783 3.175-8.857 1.297-12.693-.458-.923-1.745-3.558-4.564-4.83-4.383-1.97-7.619 1.508-9.963-.169-3.224-2.315 1.669-9.82-2.052-14.627-2.384-3.079-7.392-3.855-11.232-2.71-5.803 1.734-7.619 7.464-7.943 8.466-1.128 3.562-.4 6.591.293 9.288a26.215 26.215 0 0 0 1.23 3.69 192.029 192.029 0 0 1-18.297 20.145 191.39 191.39 0 0 1-16.21 13.82c-.146-.071-.297-.133-.444-.199-2.566-1.065-5.465-2.223-9.16-1.615-1.043.173-6.974 1.149-9.523 6.644-1.687 3.633-1.638 8.689 1.07 11.487 4.231 4.374 12.365.608 14.195 4.13zM-16.928 104.33c-2.872.218-3.827-4.44-8.604-5.025-3.072-.373-5.536 1.206-6.407 1.761-3.6 2.306-5.993 6.795-5.492 11.518.68 6.467 6.39 9.474 7.29 9.926 1.532.772 3.237 1.238 6.043 1.397.568.031 1.723.102 3.281.062a189.623 189.623 0 0 1 11.863 27.038c2.251 6.444 4.01 12.6 5.381 18.353-1.829 1.543-2.81 2.803-3.534 4.187-.47.896-3.352 6.666-.133 12.312 2.353 4.129 6.917 6.387 11.189 6.16 1.03-.057 3.96-.212 6.238-2.301 3.53-3.256 1.593-7.598 4.053-9.093 3.392-2.053 8.391 5.376 14.279 3.841 3.769-.989 6.446-5.287 6.895-9.265.675-6.014-3.894-9.926-4.693-10.614-2.837-2.43-5.914-2.949-8.667-3.366a26.26 26.26 0 0 0-3.88-.315A192.038 192.038 0 0 1 6.78 136.197a190.7 190.7 0 0 1-6.384-20.313c.12-.106.24-.217.355-.333 1.984-1.942 4.187-4.151 5.075-7.783.248-1.029 1.673-6.862-2.389-11.355-2.686-2.976-7.361-4.905-11.002-3.512-5.683 2.177-5.403 11.128-9.364 11.434v-.005zm166.996-38.99c-2.584 1.282-5.217-2.679-9.865-1.428-2.988.807-4.68 3.193-5.275 4.036-2.468 3.49-2.997 8.547-.759 12.734 3.063 5.734 9.483 6.382 10.491 6.462 1.71.137 3.468-.071 6.127-.972.537-.186 1.634-.554 3.064-1.175a189.754 189.754 0 0 1 21.16 20.602 188.661 188.661 0 0 1 11.89 14.987c-1.114 2.115-1.55 3.654-1.701 5.207-.097 1.011-.599 7.433 4.507 11.46 3.734 2.945 8.813 3.322 12.684 1.508.933-.443 3.588-1.685 4.915-4.475 2.047-4.342-1.38-7.638.338-9.948 2.371-3.18 9.799 1.831 14.673-1.801 3.122-2.328 3.983-7.318 2.904-11.172-1.638-5.828-7.343-7.74-8.342-8.077-3.543-1.189-6.589-.51-9.297.133a26.355 26.355 0 0 0-3.712 1.167 191.573 191.573 0 0 1-19.851-18.62 190.724 190.724 0 0 1-13.554-16.428c.071-.142.137-.292.204-.443 1.11-2.546 2.317-5.42 1.776-9.12-.156-1.046-1.03-6.989-6.487-9.624-3.609-1.747-8.666-1.782-11.517.874-4.448 4.152-.821 12.339-4.377 14.109l.004.004zm146.238 409.506c.896 2.737-3.401 4.772-2.829 9.545.373 3.069 2.496 5.082 3.241 5.797 3.104 2.94 8.037 4.191 12.507 2.576 6.123-2.204 7.681-8.458 7.912-9.442.382-1.672.431-3.438-.084-6.196-.107-.559-.311-1.695-.724-3.198a190.113 190.113 0 0 1 40.003-27.565c1.936 1.406 3.397 2.058 4.911 2.43.985.244 7.281 1.659 12-2.811 3.455-3.269 4.56-8.237 3.317-12.322-.302-.984-1.154-3.787-3.729-5.499-4.01-2.648-7.766.266-9.808-1.761-2.81-2.803 3.223-9.425.324-14.765-1.86-3.42-6.677-4.99-10.651-4.475-6.007.78-8.72 6.147-9.199 7.087-1.688 3.336-1.452 6.44-1.204 9.212a26.54 26.54 0 0 0 .622 3.837 191.562 191.562 0 0 1-21.298 16.951 191.01 191.01 0 0 1-18.221 11.044c-.133-.093-.271-.177-.408-.266-2.362-1.459-5.035-3.069-8.778-3.065-1.057.005-7.073.018-10.465 5.03-2.251 3.317-3.01 8.311-.786 11.509 3.472 4.994 12.108 2.586 13.351 6.351l-.004-.004zm-77.407-70.281c2.881-.026 3.521 4.684 8.249 5.589 3.041.576 5.608-.834 6.513-1.331 3.747-2.062 6.434-6.382 6.252-11.124-.249-6.497-5.741-9.877-6.611-10.391-1.479-.87-3.148-1.451-5.936-1.797-.564-.066-1.714-.217-3.268-.279a189.687 189.687 0 0 1-10.03-27.765 189.285 189.285 0 0 1-4.147-18.672c1.927-1.419 2.993-2.612 3.805-3.938.533-.865 3.788-6.427.955-12.277-2.073-4.28-6.473-6.835-10.749-6.893-1.03-.008-3.965-.053-6.376 1.881-3.738 3.011-2.1 7.473-4.652 8.804-3.526 1.823-8.014-5.926-13.99-4.786-3.828.737-6.784 4.844-7.499 8.786-1.075 5.957 3.219 10.166 3.969 10.907 2.668 2.617 5.705 3.335 8.422 3.938 1.31.293 2.598.479 3.85.572a191.453 191.453 0 0 1 9.714 25.414 191.317 191.317 0 0 1 5.013 20.691c-.129.097-.253.204-.378.306-2.109 1.805-4.453 3.863-5.585 7.429-.315 1.007-2.127 6.737 1.625 11.487 2.482 3.149 7.015 5.384 10.74 4.236 5.816-1.792 6.136-10.742 10.105-10.782l.009-.005zm-141.997-9.402c-2.02-2.054.928-5.784-1.705-9.811-1.696-2.586-4.493-3.451-5.483-3.757-4.085-1.259-9.062-.191-12.352 3.238-4.506 4.692-3.125 10.986-2.89 11.966.4 1.668 1.141 3.269 2.828 5.513.342.453 1.035 1.38 2.07 2.542a189.885 189.885 0 0 1-13.027 26.491 187.35 187.35 0 0 1-10.567 15.949c-2.362-.399-3.956-.337-5.479 0-.99.218-7.26 1.743-9.506 7.842-1.642 4.462-.426 9.398 2.505 12.512.71.749 2.717 2.883 5.785 3.273 4.768.594 6.837-3.681 9.572-2.772 3.76 1.264 1.3 9.873 6.273 13.377 3.188 2.239 8.2 1.508 11.535-.714 5.035-3.367 5.084-9.377 5.093-10.428.03-3.734-1.559-6.417-3.015-8.786a26.202 26.202 0 0 0-2.264-3.162 190.907 190.907 0 0 1 11.552-24.634 191.357 191.357 0 0 1 11.42-17.976c.16.023.319.04.483.058 2.766.262 5.879.519 9.226-1.149.946-.474 6.327-3.149 7.144-9.145.541-3.97-.995-8.782-4.409-10.662-5.332-2.937-11.996 3.051-14.785.226l-.004.009zm0-443.525c-2.02-2.053.928-5.783-1.705-9.81-1.696-2.586-4.493-3.451-5.483-3.757-4.085-1.26-9.062-.191-12.352 3.238-4.506 4.692-3.125 10.986-2.89 11.966.4 1.667 1.141 3.269 2.828 5.513.342.452 1.035 1.38 2.07 2.541a189.901 189.901 0 0 1-13.027 26.492A187.41 187.41 0 0 1 35.776 3.77c-2.362-.4-3.956-.337-5.479 0-.99.217-7.26 1.743-9.506 7.841-1.642 4.462-.426 9.399 2.505 12.512.71.75 2.717 2.883 5.785 3.273 4.768.595 6.837-3.68 9.572-2.771 3.76 1.264 1.3 9.872 6.273 13.376 3.188 2.24 8.2 1.508 11.535-.714 5.035-3.366 5.084-9.376 5.093-10.427.03-3.735-1.559-6.418-3.015-8.786a26.223 26.223 0 0 0-2.264-3.163A190.94 190.94 0 0 1 67.827-9.722a191.27 191.27 0 0 1 11.42-17.976c.16.022.319.04.483.058 2.766.261 5.879.518 9.226-1.15.946-.474 6.327-3.148 7.144-9.145.541-3.97-.995-8.781-4.409-10.662-5.332-2.936-11.996 3.052-14.785.226l-.004.01zm247.317 226.881c-1.198-2.617 2.846-5.123 1.741-9.802-.715-3.007-3.046-4.773-3.872-5.398-3.41-2.577-8.458-3.264-12.715-1.162-5.839 2.874-6.687 9.265-6.802 10.268-.191 1.703-.04 3.463.777 6.147.168.541.501 1.65 1.079 3.096a190.423 190.423 0 0 1-36.66 31.871c-2.082-1.18-3.605-1.663-5.155-1.863-1.008-.133-7.419-.833-11.61 4.139-3.063 3.636-3.605 8.693-1.914 12.618.413.945 1.572 3.637 4.32 5.047 4.28 2.182 7.686-1.135 9.946.652 3.103 2.471-2.145 9.727 1.332 14.712 2.233 3.189 7.197 4.213 11.086 3.255 5.883-1.45 7.974-7.083 8.347-8.072 1.301-3.499.723-6.564.164-9.287a26.558 26.558 0 0 0-1.048-3.744A191.203 191.203 0 0 1 302.5 211.77a190.61 190.61 0 0 1 16.867-13.013c.142.075.288.146.435.217 2.508 1.189 5.35 2.488 9.066 2.062 1.052-.124 7.024-.807 9.834-6.169 1.865-3.548 2.06-8.596-.511-11.527-4.009-4.573-12.32-1.211-13.976-4.817l.004-.004zM296.306 31.322c.896 2.736-3.401 4.772-2.829 9.545.373 3.069 2.496 5.082 3.241 5.796 3.104 2.94 8.037 4.192 12.507 2.577 6.123-2.204 7.681-8.458 7.912-9.442.382-1.672.431-3.438-.084-6.197-.107-.558-.311-1.694-.724-3.197a190.064 190.064 0 0 1 40.003-27.565c1.936 1.406 3.397 2.058 4.911 2.43.985.244 7.281 1.659 12-2.812 3.455-3.269 4.56-8.236 3.317-12.32-.302-.986-1.154-3.789-3.729-5.5-4.01-2.648-7.766.266-9.808-1.761-2.81-2.803 3.223-9.425.324-14.765-1.86-3.42-6.677-4.99-10.651-4.475-6.007.78-8.72 6.147-9.199 7.087-1.688 3.335-1.452 6.44-1.204 9.212.116 1.335.333 2.621.622 3.837A191.622 191.622 0 0 1 321.617.723a191.065 191.065 0 0 1-18.221 11.044c-.133-.093-.271-.178-.408-.266-2.362-1.46-5.035-3.07-8.778-3.065-1.057.004-7.073.018-10.465 5.03-2.251 3.317-3.01 8.311-.786 11.509 3.472 4.994 12.108 2.586 13.351 6.351l-.004-.004zM96.86 716.425c1.328 2.559-2.588 5.256-1.26 9.877.86 2.967 3.276 4.617 4.133 5.198 3.534 2.409 8.604 2.848 12.76.537 5.688-3.158 6.225-9.58 6.291-10.587.111-1.712-.128-3.459-1.079-6.103-.195-.532-.581-1.623-1.229-3.038a189.807 189.807 0 0 1 20.259-21.489 189.515 189.515 0 0 1 14.798-12.135c2.135 1.078 3.685 1.486 5.239 1.61 1.012.085 7.45.471 11.392-4.696 2.882-3.784 3.175-8.858 1.297-12.694-.458-.923-1.745-3.557-4.564-4.83-4.383-1.969-7.619 1.508-9.963-.169-3.224-2.315 1.669-9.819-2.052-14.627-2.384-3.078-7.392-3.854-11.232-2.71-5.803 1.734-7.619 7.465-7.943 8.467-1.128 3.561-.4 6.591.293 9.287a26.13 26.13 0 0 0 1.23 3.69 191.83 191.83 0 0 1-18.297 20.145 191.206 191.206 0 0 1-16.21 13.82c-.146-.07-.297-.133-.444-.199-2.566-1.065-5.465-2.222-9.16-1.615-1.043.173-6.974 1.149-9.523 6.644-1.687 3.633-1.638 8.689 1.07 11.488 4.231 4.373 12.365.607 14.195 4.129zm-113.788-168.57c-2.872.217-3.827-4.44-8.604-5.025-3.072-.373-5.536 1.206-6.407 1.76-3.6 2.307-5.993 6.795-5.492 11.519.68 6.466 6.39 9.473 7.29 9.926 1.532.771 3.237 1.237 6.043 1.397.568.031 1.723.102 3.281.062a189.558 189.558 0 0 1 11.863 27.037 187.87 187.87 0 0 1 5.381 18.353c-1.829 1.544-2.81 2.803-3.534 4.187-.47.896-3.352 6.666-.133 12.312 2.353 4.13 6.917 6.387 11.189 6.161 1.03-.058 3.96-.213 6.238-2.302 3.53-3.255 1.593-7.598 4.053-9.092 3.392-2.054 8.391 5.375 14.279 3.841 3.769-.989 6.446-5.287 6.895-9.266.675-6.014-3.894-9.926-4.693-10.613-2.837-2.431-5.914-2.95-8.667-3.366a26.125 26.125 0 0 0-3.88-.315A192.038 192.038 0 0 1 6.78 579.722a190.772 190.772 0 0 1-6.384-20.313c.12-.107.24-.218.355-.333 1.984-1.943 4.187-4.152 5.075-7.784.248-1.029 1.673-6.861-2.389-11.354-2.686-2.976-7.361-4.906-11.002-3.513-5.683 2.178-5.403 11.128-9.364 11.434v-.004zm166.996-38.991c-2.584 1.282-5.217-2.678-9.865-1.428-2.988.808-4.68 3.194-5.275 4.036-2.468 3.491-2.997 8.547-.759 12.734 3.063 5.735 9.483 6.382 10.491 6.462 1.71.138 3.468-.071 6.127-.971.537-.186 1.634-.555 3.064-1.175a189.794 189.794 0 0 1 21.16 20.601 188.842 188.842 0 0 1 11.89 14.987c-1.114 2.116-1.55 3.655-1.701 5.207-.097 1.011-.599 7.433 4.507 11.461 3.734 2.945 8.813 3.322 12.684 1.508.933-.444 3.588-1.686 4.915-4.476 2.047-4.342-1.38-7.637.338-9.948 2.371-3.18 9.799 1.832 14.673-1.801 3.122-2.328 3.983-7.318 2.904-11.172-1.638-5.828-7.343-7.739-8.342-8.077-3.543-1.188-6.589-.51-9.297.133a26.619 26.619 0 0 0-3.712 1.167 191.509 191.509 0 0 1-19.851-18.619 190.815 190.815 0 0 1-13.554-16.428c.071-.142.137-.293.204-.444 1.11-2.546 2.317-5.42 1.776-9.119-.156-1.046-1.03-6.99-6.487-9.624-3.609-1.748-8.666-1.783-11.517.874-4.448 4.151-.821 12.338-4.377 14.108l.004.004zm68.831 339.226c2.881-.027 3.521 4.683 8.249 5.588 3.041.577 5.608-.834 6.513-1.33 3.747-2.063 6.434-6.383 6.252-11.124-.249-6.498-5.741-9.877-6.611-10.392-1.479-.869-3.148-1.45-5.936-1.796-.564-.067-1.714-.217-3.268-.28a189.672 189.672 0 0 1-10.03-27.764 189.301 189.301 0 0 1-4.147-18.673c1.927-1.419 2.993-2.612 3.805-3.938.533-.865 3.788-6.427.955-12.277-2.073-4.28-6.473-6.834-10.749-6.892-1.03-.009-3.965-.053-6.376 1.88-3.738 3.012-2.1 7.474-4.652 8.804-3.526 1.823-8.014-5.925-13.99-4.785-3.828.736-6.784 4.843-7.499 8.786-1.075 5.956 3.219 10.166 3.969 10.906 2.668 2.617 5.705 3.336 8.422 3.939 1.31.292 2.598.479 3.85.572a191.453 191.453 0 0 1 9.714 25.414 191.302 191.302 0 0 1 5.013 20.69c-.129.098-.253.204-.378.306-2.109 1.805-4.453 3.863-5.585 7.429-.315 1.007-2.127 6.737 1.625 11.488 2.482 3.149 7.015 5.384 10.74 4.235 5.816-1.792 6.136-10.742 10.105-10.782l.009-.004zm-141.997-9.403c-2.02-2.054.928-5.784-1.705-9.811-1.696-2.586-4.493-3.451-5.483-3.757-4.085-1.259-9.062-.19-12.352 3.238-4.506 4.693-3.125 10.986-2.89 11.971.4 1.668 1.141 3.269 2.828 5.513.342.452 1.035 1.379 2.07 2.541a189.893 189.893 0 0 1-13.027 26.492 187.35 187.35 0 0 1-10.567 15.949c-2.362-.399-3.956-.337-5.479 0-.99.217-7.26 1.743-9.506 7.842-1.642 4.461-.426 9.398 2.505 12.511.71.75 2.717 2.883 5.785 3.274 4.768.594 6.837-3.682 9.572-2.772 3.76 1.264 1.3 9.872 6.273 13.376 3.188 2.24 8.2 1.508 11.535-.714 5.035-3.366 5.084-9.376 5.093-10.427.03-3.734-1.559-6.418-3.015-8.786a26.295 26.295 0 0 0-2.264-3.163 190.96 190.96 0 0 1 11.552-24.633 191.227 191.227 0 0 1 11.42-17.976c.16.022.319.04.483.058 2.766.261 5.879.519 9.226-1.149.946-.475 6.327-3.149 7.144-9.145.541-3.97-.995-8.782-4.409-10.663-5.332-2.936-11.996 3.052-14.785.226l-.004.005zm463.942-122.262c1.327 2.559-2.589 5.256-1.261 9.877.861 2.967 3.277 4.617 4.133 5.198 3.535 2.409 8.605 2.848 12.76.537 5.688-3.158 6.225-9.58 6.292-10.587.111-1.712-.129-3.459-1.079-6.103-.196-.532-.582-1.623-1.23-3.038a189.897 189.897 0 0 1 20.259-21.489 189.701 189.701 0 0 1 14.798-12.135c2.136 1.078 3.685 1.486 5.239 1.61 1.012.085 7.45.471 11.393-4.696 2.881-3.784 3.174-8.858 1.296-12.694-.457-.923-1.745-3.557-4.564-4.83-4.382-1.969-7.619 1.508-9.963-.169-3.223-2.315 1.669-9.819-2.051-14.627-2.385-3.078-7.393-3.854-11.233-2.71-5.803 1.734-7.619 7.465-7.943 8.467-1.128 3.561-.4 6.591.293 9.287.329 1.3.746 2.533 1.23 3.69a191.608 191.608 0 0 1-18.297 20.145 191.206 191.206 0 0 1-16.21 13.82c-.146-.07-.297-.133-.444-.199-2.566-1.065-5.465-2.222-9.159-1.615-1.043.173-6.975 1.149-9.523 6.644-1.687 3.633-1.639 8.689 1.07 11.488 4.231 4.373 12.365.607 14.194 4.129zm-113.788-168.57c-2.873.217-3.827-4.44-8.605-5.025-3.072-.373-5.536 1.206-6.406 1.76-3.601 2.307-5.994 6.795-5.492 11.519.679 6.466 6.389 9.473 7.29 9.926 1.532.772 3.236 1.237 6.042 1.397.569.031 1.723.102 3.282.062a189.742 189.742 0 0 1 11.863 27.037 187.894 187.894 0 0 1 5.381 18.353c-1.829 1.544-2.811 2.803-3.534 4.187-.471.896-3.352 6.666-.133 12.312 2.353 4.13 6.917 6.387 11.188 6.161 1.03-.058 3.96-.213 6.238-2.302 3.53-3.255 1.594-7.598 4.053-9.092 3.393-2.054 8.392 5.375 14.279 3.841 3.769-.989 6.447-5.287 6.895-9.265.675-6.015-3.894-9.927-4.693-10.614-2.837-2.431-5.914-2.949-8.666-3.366a26.133 26.133 0 0 0-3.881-.315 191.98 191.98 0 0 1-11.392-24.709 190.542 190.542 0 0 1-6.385-20.313c.12-.107.24-.218.355-.333 1.985-1.943 4.187-4.151 5.075-7.784.249-1.029 1.674-6.861-2.389-11.354-2.686-2.976-7.361-4.906-11.002-3.513-5.683 2.178-5.403 11.128-9.363 11.434v-.004zm166.995-38.991c-2.584 1.282-5.216-2.679-9.865-1.428-2.988.807-4.679 3.194-5.274 4.036-2.469 3.491-2.997 8.547-.76 12.734 3.064 5.735 9.484 6.382 10.492 6.462 1.709.138 3.467-.071 6.127-.971.537-.187 1.634-.555 3.063-1.176a189.812 189.812 0 0 1 21.16 20.602 188.613 188.613 0 0 1 11.89 14.987c-1.114 2.115-1.549 3.654-1.7 5.207-.098 1.011-.6 7.433 4.506 11.46 3.734 2.945 8.813 3.322 12.685 1.508.932-.443 3.587-1.685 4.915-4.475 2.047-4.342-1.381-7.637.337-9.948 2.371-3.18 9.799 1.832 14.674-1.801 3.121-2.328 3.982-7.318 2.904-11.172-1.639-5.828-7.344-7.74-8.343-8.077-3.543-1.188-6.589-.51-9.297.133a26.57 26.57 0 0 0-3.712 1.167 191.614 191.614 0 0 1-19.85-18.619 190.651 190.651 0 0 1-13.555-16.428c.071-.142.138-.293.204-.444 1.11-2.546 2.318-5.42 1.776-9.119-.155-1.047-1.03-6.99-6.486-9.624-3.61-1.748-8.667-1.783-11.517.873-4.449 4.152-.822 12.339-4.378 14.109l.004.004zM740.29 918.37c.897 2.737-3.401 4.773-2.828 9.545.373 3.069 2.495 5.083 3.241 5.797 3.103 2.941 8.036 4.191 12.507 2.577 6.122-2.204 7.681-8.458 7.912-9.443.381-1.672.43-3.437-.085-6.196-.106-.559-.31-1.694-.723-3.198a190.074 190.074 0 0 1 40.003-27.565c1.935 1.406 3.396 2.058 4.91 2.431.986.244 7.281 1.659 12.001-2.812 3.454-3.269 4.56-8.236 3.316-12.321-.301-.985-1.154-3.788-3.729-5.5-4.009-2.648-7.765.266-9.808-1.761-2.81-2.803 3.224-9.425.324-14.765-1.86-3.419-6.677-4.989-10.651-4.475-6.007.781-8.72 6.147-9.199 7.088-1.687 3.335-1.452 6.44-1.203 9.212.115 1.335.333 2.621.621 3.836a191.678 191.678 0 0 1-21.298 16.952 191.216 191.216 0 0 1-18.221 11.044c-.133-.094-.27-.178-.408-.267-2.362-1.459-5.035-3.069-8.778-3.064-1.056.004-7.072.017-10.464 5.029-2.251 3.318-3.011 8.312-.786 11.51 3.472 4.994 12.107 2.585 13.35 6.351l-.004-.005zm-77.408-70.28c2.882-.027 3.521 4.683 8.249 5.588 3.042.577 5.608-.834 6.514-1.331 3.747-2.062 6.433-6.382 6.251-11.123-.249-6.498-5.741-9.877-6.611-10.392-1.478-.869-3.148-1.45-5.936-1.796-.564-.067-1.714-.218-3.268-.28a189.56 189.56 0 0 1-10.029-27.764 189.015 189.015 0 0 1-4.147-18.673c1.927-1.419 2.992-2.612 3.805-3.938.533-.865 3.787-6.427.954-12.277-2.073-4.28-6.473-6.835-10.748-6.892-1.031-.009-3.965-.053-6.376 1.88-3.738 3.012-2.1 7.474-4.653 8.804-3.525 1.823-8.014-5.925-13.99-4.785-3.827.736-6.784 4.843-7.499 8.786-1.074 5.956 3.219 10.165 3.969 10.906 2.669 2.617 5.706 3.335 8.423 3.939a26.81 26.81 0 0 0 3.849.572 191.453 191.453 0 0 1 9.714 25.414 191.067 191.067 0 0 1 5.013 20.69c-.129.098-.253.204-.377.306-2.109 1.805-4.454 3.863-5.586 7.429-.315 1.007-2.126 6.737 1.625 11.487 2.482 3.149 7.015 5.385 10.74 4.236 5.816-1.792 6.136-10.742 10.105-10.782l.009-.004zm-141.996-9.403c-2.02-2.054.928-5.784-1.705-9.811-1.696-2.586-4.493-3.451-5.483-3.757-4.084-1.259-9.061-.19-12.351 3.238-4.507 4.693-3.126 10.986-2.891 11.971.4 1.668 1.141 3.269 2.829 5.513.341.452 1.034 1.379 2.068 2.541a189.92 189.92 0 0 1-13.026 26.492 187.111 187.111 0 0 1-10.567 15.949c-2.357-.399-3.956-.337-5.479 0-.99.217-7.259 1.743-9.505 7.842-1.643 4.461-.427 9.398 2.504 12.511.71.75 2.717 2.883 5.785 3.274 4.768.594 6.837-3.682 9.572-2.772 3.761 1.264 1.301 9.872 6.274 13.376 3.188 2.24 8.2 1.508 11.534-.714 5.035-3.366 5.084-9.376 5.093-10.427.031-3.734-1.559-6.418-3.015-8.786a26.248 26.248 0 0 0-2.264-3.163 190.9 190.9 0 0 1 11.552-24.633 191.246 191.246 0 0 1 11.42-17.976c.159.022.319.04.484.058 2.766.261 5.878.519 9.226-1.149.945-.475 6.326-3.149 7.143-9.145.542-3.97-.994-8.782-4.409-10.663-5.332-2.936-11.996 3.052-14.784.226l-.005.005zm247.318-216.644c-1.199-2.617 2.846-5.123 1.74-9.802-.715-3.007-3.046-4.772-3.871-5.398-3.41-2.576-8.458-3.264-12.716-1.162-5.839 2.874-6.686 9.266-6.802 10.268-.191 1.703-.04 3.464.777 6.147.169.541.502 1.65 1.079 3.096a190.247 190.247 0 0 1-36.66 31.872c-2.082-1.18-3.605-1.663-5.154-1.863-1.008-.133-7.419-.834-11.611 4.138-3.063 3.637-3.605 8.693-1.913 12.618.413.945 1.571 3.637 4.32 5.048 4.28 2.182 7.685-1.136 9.945.652 3.103 2.47-2.144 9.722 1.332 14.711 2.233 3.189 7.197 4.214 11.086 3.256 5.883-1.451 7.974-7.083 8.347-8.072 1.301-3.5.724-6.565.164-9.288a26.543 26.543 0 0 0-1.047-3.743 190.802 190.802 0 0 1 36.131-32.24c.142.075.289.146.435.217 2.509 1.189 5.35 2.489 9.066 2.063 1.052-.124 7.024-.807 9.834-6.17 1.865-3.548 2.061-8.595-.51-11.527-4.009-4.573-12.321-1.211-13.977-4.817l.005-.004zm-443.985-.004c-1.198-2.617 2.846-5.123 1.741-9.802-.715-3.007-3.046-4.773-3.872-5.398-3.41-2.577-8.458-3.264-12.715-1.162-5.839 2.874-6.687 9.265-6.802 10.268-.191 1.703-.04 3.463.777 6.147.168.541.501 1.65 1.079 3.096a190.423 190.423 0 0 1-36.66 31.871c-2.082-1.18-3.605-1.663-5.155-1.863-1.008-.133-7.419-.833-11.61 4.138-3.063 3.637-3.605 8.694-1.914 12.619.413.944 1.572 3.637 4.32 5.047 4.28 2.182 7.686-1.135 9.946.652 3.103 2.47-2.145 9.727 1.332 14.712 2.233 3.189 7.197 4.213 11.086 3.255 5.883-1.45 7.974-7.083 8.347-8.072 1.301-3.499.723-6.564.164-9.287a26.558 26.558 0 0 0-1.048-3.744A191.203 191.203 0 0 1 302.5 655.29a190.61 190.61 0 0 1 16.867-13.013c.142.075.288.146.435.217 2.513 1.189 5.35 2.488 9.066 2.062 1.052-.124 7.024-.807 9.834-6.169 1.865-3.548 2.06-8.596-.511-11.527-4.009-4.573-12.32-1.211-13.976-4.817l.004-.004zm108.745 134.299c1.093-2.666 5.688-1.428 8.356-5.429 1.71-2.577 1.403-5.486 1.297-6.511-.449-4.249-3.392-8.396-7.846-10.068-6.091-2.289-11.339 1.455-12.151 2.058-1.377 1.025-2.558 2.337-3.961 4.768-.279.492-.865 1.495-1.523 2.901-8.768.23-18.705-.125-29.507-1.531a189.692 189.692 0 0 1-18.833-3.419c-.56-2.324-1.248-3.766-2.163-5.03-.59-.825-4.462-5.978-10.957-5.641-4.751.248-8.818 3.313-10.527 7.225-.409.944-1.585 3.632-.737 6.604 1.332 4.612 6.083 4.83 6.318 7.699.32 3.952-8.573 5.083-9.839 11.026-.803 3.81 1.843 8.126 5.199 10.312 5.079 3.3 10.629.976 11.601.568 3.45-1.446 5.288-3.961 6.9-6.232a26.823 26.823 0 0 0 2.02-3.326c8.05-.306 17.209-.142 27.216.905 7.65.803 14.687 2.009 21.036 3.406.04.155.089.311.138.466.848 2.643 1.838 5.601 4.688 8.023.808.683 5.39 4.573 11.229 2.954 3.867-1.064 7.689-4.373 8.076-8.25.599-6.049-7.535-9.81-6.034-13.483l.004.005zM296.306 918.37c.896 2.737-3.401 4.773-2.829 9.545.373 3.069 2.496 5.083 3.241 5.797 3.104 2.94 8.037 4.191 12.507 2.577 6.123-2.204 7.681-8.458 7.912-9.443.382-1.672.431-3.437-.084-6.196-.107-.559-.311-1.694-.724-3.198a190.014 190.014 0 0 1 23.447-17.962 188.592 188.592 0 0 1 16.556-9.603c1.936 1.406 3.397 2.058 4.911 2.431.985.244 7.281 1.659 12-2.812 3.455-3.269 4.56-8.236 3.317-12.321-.302-.985-1.154-3.788-3.729-5.5-4.01-2.648-7.766.266-9.808-1.761-2.81-2.803 3.223-9.425.324-14.769-1.86-3.42-6.677-4.99-10.651-4.475-6.007.78-8.72 6.147-9.199 7.087-1.688 3.336-1.452 6.44-1.204 9.212.116 1.335.333 2.621.622 3.837a191.562 191.562 0 0 1-21.298 16.951 191.01 191.01 0 0 1-18.221 11.044c-.133-.093-.271-.177-.408-.266-2.362-1.459-5.035-3.069-8.778-3.065-1.057.005-7.073.018-10.465 5.03-2.251 3.317-3.01 8.311-.786 11.509 3.472 4.994 12.108 2.586 13.351 6.351h-.004zm244.538-645.469c1.327 2.559-2.589 5.255-1.261 9.877.861 2.967 3.277 4.617 4.133 5.198 3.535 2.408 8.605 2.847 12.76.537 5.688-3.158 6.225-9.58 6.292-10.587.111-1.712-.129-3.46-1.079-6.103-.196-.532-.582-1.623-1.23-3.038a189.813 189.813 0 0 1 20.259-21.489 189.246 189.246 0 0 1 14.798-12.135c2.136 1.078 3.685 1.486 5.239 1.61 1.012.084 7.45.47 11.393-4.697 2.881-3.783 3.174-8.857 1.296-12.693-.457-.923-1.745-3.558-4.564-4.83-4.382-1.97-7.619 1.508-9.963-.169-3.223-2.315 1.669-9.82-2.051-14.627-2.385-3.079-7.393-3.855-11.233-2.71-5.803 1.734-7.619 7.464-7.943 8.466-1.128 3.562-.4 6.591.293 9.288a26.345 26.345 0 0 0 1.23 3.69 191.807 191.807 0 0 1-18.297 20.145 191.39 191.39 0 0 1-16.21 13.82c-.146-.071-.297-.133-.444-.199-2.566-1.065-5.465-2.223-9.159-1.615-1.043.173-6.975 1.149-9.523 6.644-1.687 3.633-1.639 8.689 1.07 11.487 4.231 4.374 12.365.608 14.194 4.13zM427.056 104.33c-2.873.218-3.827-4.44-8.605-5.025-3.072-.372-5.536 1.207-6.406 1.761-3.601 2.306-5.994 6.795-5.492 11.518.679 6.467 6.389 9.474 7.29 9.926 1.532.772 3.236 1.238 6.042 1.397.569.032 1.723.102 3.282.063a189.742 189.742 0 0 1 11.863 27.037 187.732 187.732 0 0 1 5.381 18.353c-1.829 1.543-2.811 2.803-3.534 4.187-.471.896-3.352 6.666-.133 12.312 2.353 4.129 6.917 6.387 11.188 6.161 1.03-.058 3.96-.213 6.238-2.302 3.53-3.256 1.594-7.598 4.053-9.093 3.393-2.053 8.392 5.376 14.279 3.841 3.769-.989 6.447-5.287 6.895-9.265.675-6.014-3.894-9.926-4.693-10.613-2.837-2.431-5.914-2.95-8.666-3.367a26.268 26.268 0 0 0-3.881-.315 192.026 192.026 0 0 1-11.392-24.708 190.555 190.555 0 0 1-6.385-20.314c.12-.106.24-.217.355-.333 1.985-1.942 4.187-4.151 5.075-7.783.249-1.029 1.674-6.862-2.389-11.355-2.686-2.976-7.361-4.905-11.002-3.512-5.683 2.177-5.403 11.128-9.363 11.434v-.005zm166.995-38.99c-2.584 1.282-5.216-2.679-9.865-1.428-2.988.807-4.679 3.193-5.274 4.036-2.469 3.49-2.997 8.547-.76 12.734 3.064 5.734 9.484 6.382 10.492 6.462 1.709.137 3.467-.071 6.127-.972.537-.186 1.634-.554 3.063-1.175a189.661 189.661 0 0 1 21.16 20.602 188.606 188.606 0 0 1 11.89 14.986c-1.114 2.116-1.549 3.655-1.7 5.207-.098 1.012-.6 7.434 4.506 11.461 3.734 2.945 8.813 3.322 12.685 1.508.932-.443 3.587-1.685 4.915-4.475 2.047-4.342-1.381-7.638.337-9.948 2.371-3.18 9.799 1.831 14.674-1.801 3.121-2.329 3.982-7.318 2.904-11.172-1.639-5.828-7.344-7.74-8.343-8.077-3.543-1.189-6.589-.51-9.297.133a26.568 26.568 0 0 0-3.712 1.166 191.457 191.457 0 0 1-19.85-18.619 190.56 190.56 0 0 1-13.555-16.428c.071-.142.138-.293.204-.443 1.11-2.546 2.318-5.42 1.776-9.12-.155-1.046-1.03-6.99-6.486-9.624-3.61-1.747-8.667-1.783-11.517.874-4.449 4.152-.822 12.339-4.378 14.109l.004.004zM740.29 474.846c.897 2.737-3.401 4.772-2.828 9.545.373 3.069 2.495 5.082 3.241 5.797 3.103 2.94 8.036 4.191 12.507 2.576 6.122-2.204 7.681-8.458 7.912-9.442.381-1.672.43-3.438-.085-6.196-.106-.559-.31-1.695-.723-3.198a190.173 190.173 0 0 1 23.446-17.963 188.58 188.58 0 0 1 16.557-9.602c1.935 1.406 3.396 2.058 4.91 2.43.986.244 7.281 1.659 12.001-2.811 3.454-3.269 4.56-8.237 3.316-12.322-.301-.984-1.154-3.787-3.729-5.499-4.009-2.648-7.765.266-9.808-1.761-2.81-2.803 3.224-9.425.324-14.765-1.86-3.42-6.677-4.99-10.651-4.475-6.007.78-8.72 6.147-9.199 7.087-1.687 3.336-1.452 6.44-1.203 9.212a26.54 26.54 0 0 0 .621 3.837 191.562 191.562 0 0 1-21.298 16.951 191.01 191.01 0 0 1-18.221 11.044c-.133-.093-.27-.177-.408-.266-2.362-1.459-5.035-3.069-8.778-3.065-1.056.005-7.072.018-10.464 5.03-2.251 3.317-3.011 8.311-.786 11.509 3.472 4.994 12.107 2.586 13.35 6.351l-.004-.004zm-77.408-70.281c2.882-.026 3.521 4.684 8.249 5.589 3.042.576 5.608-.834 6.514-1.331 3.747-2.062 6.433-6.382 6.251-11.124-.249-6.497-5.741-9.877-6.611-10.391-1.478-.87-3.148-1.451-5.936-1.797-.564-.066-1.714-.217-3.268-.279a189.575 189.575 0 0 1-10.029-27.765 188.999 188.999 0 0 1-4.147-18.672c1.927-1.419 2.992-2.612 3.805-3.938.533-.865 3.787-6.427.954-12.277-2.073-4.28-6.473-6.835-10.748-6.893-1.031-.008-3.965-.053-6.376 1.881-3.738 3.011-2.1 7.473-4.653 8.804-3.525 1.823-8.014-5.926-13.99-4.786-3.827.737-6.784 4.844-7.499 8.786-1.074 5.957 3.219 10.166 3.969 10.907 2.669 2.617 5.706 3.335 8.423 3.938a26.67 26.67 0 0 0 3.849.572 191.453 191.453 0 0 1 9.714 25.414 191.082 191.082 0 0 1 5.013 20.691c-.129.097-.253.204-.377.306-2.109 1.805-4.454 3.863-5.586 7.429-.315 1.007-2.126 6.737 1.625 11.487 2.482 3.149 7.015 5.384 10.74 4.236 5.816-1.792 6.136-10.742 10.105-10.782l.009-.005zm-141.996-9.402c-2.02-2.054.928-5.784-1.705-9.811-1.696-2.586-4.493-3.451-5.483-3.757-4.084-1.259-9.061-.191-12.351 3.238-4.507 4.692-3.126 10.986-2.891 11.966.4 1.668 1.141 3.269 2.829 5.513.341.453 1.034 1.38 2.068 2.542a189.912 189.912 0 0 1-13.026 26.491 187.111 187.111 0 0 1-10.567 15.949c-2.357-.399-3.956-.337-5.479 0-.99.218-7.259 1.743-9.505 7.842-1.643 4.462-.427 9.398 2.504 12.512.71.749 2.717 2.883 5.785 3.273 4.768.594 6.837-3.681 9.572-2.772 3.761 1.264 1.301 9.873 6.274 13.377 3.188 2.239 8.2 1.508 11.534-.714 5.035-3.367 5.084-9.377 5.093-10.428.031-3.734-1.559-6.417-3.015-8.786a26.156 26.156 0 0 0-2.264-3.162 190.845 190.845 0 0 1 11.552-24.634 191.376 191.376 0 0 1 11.42-17.976c.159.023.319.04.484.058 2.766.262 5.878.519 9.226-1.149.945-.474 6.326-3.149 7.143-9.145.542-3.97-.994-8.782-4.409-10.662-5.332-2.937-11.996 3.051-14.784.226l-.005.009zm0-443.525c-2.02-2.053.928-5.783-1.705-9.81-1.696-2.586-4.493-3.451-5.483-3.757-4.084-1.26-9.061-.191-12.351 3.238-4.507 4.692-3.126 10.986-2.891 11.966.4 1.667 1.141 3.269 2.829 5.513.341.452 1.034 1.38 2.068 2.541a189.928 189.928 0 0 1-13.026 26.492A187.17 187.17 0 0 1 479.76 3.77c-2.357-.4-3.956-.337-5.479 0-.99.217-7.259 1.743-9.505 7.841-1.643 4.462-.427 9.399 2.504 12.512.71.75 2.717 2.883 5.785 3.273 4.768.595 6.837-3.68 9.572-2.771 3.761 1.264 1.301 9.872 6.274 13.376 3.188 2.24 8.2 1.508 11.534-.714 5.035-3.366 5.084-9.376 5.093-10.427.031-3.735-1.559-6.418-3.015-8.786a26.177 26.177 0 0 0-2.264-3.163 190.88 190.88 0 0 1 11.552-24.633 191.29 191.29 0 0 1 11.42-17.976c.159.022.319.04.484.058 2.766.261 5.878.518 9.226-1.15.945-.474 6.326-3.148 7.143-9.145.542-3.97-.994-8.781-4.409-10.662-5.332-2.936-11.996 3.052-14.784.226l-.005.01zm247.318 226.881c-1.199-2.617 2.846-5.123 1.74-9.802-.715-3.007-3.046-4.773-3.871-5.398-3.41-2.577-8.458-3.264-12.716-1.162-5.839 2.874-6.686 9.265-6.802 10.268-.191 1.703-.04 3.463.777 6.147.169.541.502 1.65 1.079 3.096a190.336 190.336 0 0 1-36.66 31.871c-2.082-1.18-3.605-1.663-5.154-1.863-1.008-.133-7.419-.833-11.611 4.139-3.063 3.636-3.605 8.693-1.913 12.618.413.945 1.571 3.637 4.32 5.047 4.28 2.182 7.685-1.135 9.945.652 3.103 2.471-2.144 9.727 1.332 14.712 2.233 3.189 7.197 4.213 11.086 3.255 5.883-1.45 7.974-7.083 8.347-8.072 1.301-3.499.724-6.564.164-9.287a26.557 26.557 0 0 0-1.047-3.744 190.61 190.61 0 0 1 36.131-32.239c.142.075.289.146.435.217 2.509 1.189 5.35 2.488 9.066 2.062 1.052-.124 7.024-.807 9.834-6.169 1.865-3.548 2.061-8.596-.51-11.527-4.009-4.573-12.321-1.211-13.977-4.817l.005-.004zm-335.24 134.294c1.093-2.665 5.688-1.428 8.356-5.428 1.71-2.577 1.403-5.487 1.297-6.511-.449-4.249-3.392-8.396-7.846-10.068-6.091-2.289-11.339 1.454-12.151 2.058-1.377 1.024-2.558 2.337-3.961 4.768-.279.492-.865 1.494-1.523 2.9a190.001 190.001 0 0 1-29.507-1.53 189.393 189.393 0 0 1-18.833-3.42c-.56-2.324-1.248-3.765-2.163-5.029-.59-.825-4.462-5.979-10.957-5.642-4.751.249-8.818 3.313-10.527 7.225-.409.945-1.585 3.633-.737 6.604 1.332 4.613 6.083 4.83 6.318 7.7.32 3.952-8.573 5.083-9.839 11.026-.803 3.81 1.843 8.125 5.199 10.312 5.079 3.3 10.629.976 11.601.568 3.45-1.446 5.288-3.961 6.9-6.232a27.156 27.156 0 0 0 2.02-3.322c8.05-.306 17.209-.142 27.216.905 7.65.803 14.687 2.009 21.036 3.406.04.155.089.311.138.466.848 2.643 1.838 5.602 4.688 8.023.808.683 5.39 4.573 11.229 2.954 3.867-1.064 7.689-4.373 8.076-8.249.599-6.05-7.535-9.811-6.034-13.484h.004zM740.29 31.322c.897 2.736-3.401 4.772-2.828 9.545.373 3.069 2.495 5.082 3.241 5.796 3.103 2.94 8.036 4.192 12.507 2.577 6.122-2.204 7.681-8.458 7.912-9.442.381-1.672.43-3.438-.085-6.197-.106-.558-.31-1.694-.723-3.197a190.124 190.124 0 0 1 40.003-27.565c1.935 1.406 3.396 2.058 4.91 2.43.986.244 7.281 1.659 12.001-2.812 3.454-3.269 4.56-8.236 3.316-12.32-.301-.986-1.154-3.789-3.729-5.5-4.009-2.648-7.765.266-9.808-1.761-2.81-2.803 3.224-9.425.324-14.765-1.86-3.42-6.677-4.99-10.651-4.475-6.007.78-8.72 6.147-9.199 7.087-1.687 3.335-1.452 6.44-1.203 9.212a26.54 26.54 0 0 0 .621 3.837A191.622 191.622 0 0 1 765.601.723a191.065 191.065 0 0 1-18.221 11.044c-.133-.093-.27-.178-.408-.266-2.362-1.46-5.035-3.07-8.778-3.065-1.056.004-7.072.018-10.464 5.03-2.251 3.317-3.011 8.311-.786 11.509 3.472 4.994 12.107 2.586 13.35 6.351l-.004-.004zm244.538 241.579c1.328 2.559-2.588 5.255-1.261 9.877.862 2.967 3.277 4.617 4.134 5.198 3.534 2.408 8.604 2.847 12.759.537 5.69-3.158 6.23-9.58 6.29-10.587.11-1.712-.13-3.46-1.08-6.103a35.77 35.77 0 0 0-1.23-3.038 190.372 190.372 0 0 1 35.06-33.624c2.14 1.078 3.69 1.486 5.24 1.61 1.01.084 7.45.47 11.39-4.697 2.88-3.783 3.18-8.857 1.3-12.693-.46-.923-1.75-3.558-4.57-4.83-4.38-1.97-7.61 1.508-9.96-.169-3.22-2.315 1.67-9.82-2.05-14.627-2.38-3.079-7.39-3.855-11.23-2.71-5.81 1.734-7.62 7.464-7.95 8.466-1.12 3.562-.4 6.591.3 9.288a25.71 25.71 0 0 0 1.23 3.69 192.526 192.526 0 0 1-18.3 20.145 191.386 191.386 0 0 1-16.209 13.82c-.147-.071-.298-.133-.444-.199-2.566-1.065-5.465-2.223-9.159-1.615-1.044.173-6.976 1.149-9.524 6.644-1.687 3.633-1.638 8.689 1.07 11.487 4.231 4.374 12.365.608 14.194 4.13zM871.04 104.33c-2.872.218-3.827-4.44-8.604-5.025-3.073-.372-5.537 1.207-6.407 1.761-3.601 2.306-5.994 6.795-5.492 11.518.679 6.467 6.389 9.474 7.29 9.926 1.532.772 3.237 1.238 6.043 1.397.568.032 1.723.102 3.281.063a189.516 189.516 0 0 1 11.863 27.037 187.732 187.732 0 0 1 5.381 18.353c-1.829 1.543-2.81 2.803-3.534 4.187-.47.896-3.352 6.666-.133 12.312 2.353 4.129 6.917 6.387 11.188 6.161 1.03-.058 3.961-.213 6.238-2.302 3.53-3.256 1.594-7.598 4.054-9.093 3.392-2.053 8.391 5.376 14.278 3.841 3.77-.989 6.447-5.287 6.895-9.265.675-6.014-3.893-9.926-4.692-10.613-2.838-2.431-5.914-2.95-8.667-3.367a26.266 26.266 0 0 0-3.88-.315 192.022 192.022 0 0 1-11.393-24.708 191.014 191.014 0 0 1-6.385-20.314c.12-.106.24-.217.356-.333 1.984-1.942 4.186-4.151 5.074-7.783.249-1.029 1.674-6.862-2.388-11.355-2.686-2.976-7.361-4.905-11.002-3.512-5.683 2.177-5.403 11.128-9.364 11.434v-.005zm166.99-38.99c-2.58 1.282-5.21-2.679-9.86-1.428-2.99.807-4.68 3.193-5.28 4.036-2.46 3.49-2.99 8.547-.76 12.734 3.07 5.734 9.49 6.382 10.5 6.462 1.71.137 3.46-.071 6.12-.972.54-.186 1.64-.554 3.07-1.175a189.833 189.833 0 0 1 21.16 20.602 189.756 189.756 0 0 1 11.89 14.986c-1.12 2.116-1.55 3.655-1.7 5.207-.1 1.012-.6 7.434 4.5 11.461 3.74 2.945 8.82 3.322 12.69 1.508.93-.443 3.58-1.685 4.91-4.475 2.05-4.342-1.38-7.638.34-9.948 2.37-3.18 9.8 1.831 14.67-1.801 3.12-2.329 3.99-7.318 2.91-11.172-1.64-5.828-7.35-7.74-8.35-8.077-3.54-1.189-6.58-.51-9.29.133-1.31.306-2.55.705-3.71 1.166a190.152 190.152 0 0 1-19.85-18.619 190.298 190.298 0 0 1-13.56-16.428c.07-.142.14-.293.2-.443 1.11-2.546 2.32-5.42 1.78-9.12-.15-1.046-1.03-6.99-6.49-9.624-3.61-1.747-8.66-1.783-11.51.874-4.45 4.152-.82 12.339-4.38 14.109v.004zm146.24 409.506c.9 2.737-3.4 4.773-2.82 9.545.37 3.069 2.49 5.083 3.24 5.797 3.1 2.94 8.03 4.191 12.5 2.577 6.13-2.205 7.69-8.458 7.92-9.443.38-1.672.43-3.437-.09-6.196a35.84 35.84 0 0 0-.72-3.198 190.08 190.08 0 0 1 23.44-17.963c5.73-3.721 11.3-6.896 16.56-9.602 1.94 1.406 3.4 2.058 4.91 2.431.99.244 7.28 1.658 12-2.812 3.46-3.269 4.56-8.237 3.32-12.321-.3-.985-1.16-3.788-3.73-5.5-4.01-2.648-7.77.266-9.81-1.761-2.81-2.803 3.23-9.425.33-14.765-1.86-3.419-6.68-4.99-10.66-4.475-6 .781-8.72 6.147-9.19 7.087-1.69 3.336-1.46 6.44-1.21 9.212.12 1.335.34 2.622.62 3.837-5.92 5.451-13 11.261-21.29 16.951a190.712 190.712 0 0 1-18.23 11.044c-.13-.093-.27-.177-.4-.266-2.37-1.459-5.04-3.069-8.78-3.065-1.06.005-7.07.018-10.47 5.03-2.25 3.317-3.01 8.312-.78 11.509 3.47 4.994 12.11 2.586 13.35 6.352l-.01-.005zm-77.41-70.281c2.89-.026 3.53 4.684 8.25 5.589 3.05.576 5.61-.834 6.52-1.331 3.74-2.062 6.43-6.382 6.25-11.124-.25-6.497-5.74-9.877-6.61-10.391-1.48-.87-3.15-1.451-5.94-1.797-.56-.066-1.71-.217-3.27-.279a190.738 190.738 0 0 1-10.03-27.765 190.603 190.603 0 0 1-4.14-18.672c1.92-1.419 2.99-2.612 3.8-3.938.54-.865 3.79-6.427.96-12.277-2.08-4.28-6.48-6.835-10.75-6.893-1.03-.008-3.97-.053-6.38 1.881-3.74 3.011-2.1 7.473-4.65 8.804-3.53 1.823-8.01-5.926-13.99-4.786-3.83.737-6.78 4.844-7.5 8.786-1.07 5.957 3.22 10.166 3.97 10.907 2.67 2.617 5.71 3.335 8.42 3.938 1.31.293 2.6.479 3.85.572 3.4 7.296 6.8 15.794 9.72 25.414a192.926 192.926 0 0 1 5.01 20.691c-.13.097-.25.204-.38.306-2.11 1.805-4.45 3.863-5.58 7.429-.32 1.007-2.13 6.737 1.62 11.487 2.48 3.149 7.02 5.384 10.74 4.236 5.82-1.792 6.14-10.742 10.11-10.782v-.005zm-141.99-9.402c-2.02-2.054.928-5.784-1.705-9.811-1.696-2.586-4.493-3.451-5.483-3.757-4.085-1.259-9.062-.191-12.352 3.238-4.506 4.692-3.126 10.986-2.89 11.966.399 1.668 1.141 3.269 2.828 5.513.342.453 1.034 1.38 2.069 2.542a189.814 189.814 0 0 1-13.027 26.491 187.35 187.35 0 0 1-10.566 15.949c-2.362-.399-3.956-.337-5.479 0-.99.218-7.259 1.743-9.506 7.842-1.643 4.462-.426 9.398 2.504 12.512.711.749 2.717 2.883 5.785 3.273 4.769.594 6.838-3.681 9.573-2.772 3.76 1.264 1.301 9.873 6.273 13.377 3.188 2.239 8.201 1.508 11.535-.714 5.035-3.367 5.083-9.377 5.092-10.428.031-3.734-1.558-6.417-3.014-8.786a26.162 26.162 0 0 0-2.265-3.162 190.995 190.995 0 0 1 11.553-24.634 191.378 191.378 0 0 1 11.419-17.976c.16.023.32.04.484.058 2.766.262 5.878.519 9.226-1.149.946-.474 6.327-3.149 7.144-9.145.541-3.97-.995-8.782-4.409-10.663-5.332-2.936-11.996 3.052-14.785.227l-.004.009zm0-443.525c-2.02-2.053.928-5.783-1.705-9.81-1.696-2.586-4.493-3.451-5.483-3.757-4.085-1.26-9.062-.191-12.352 3.238-4.506 4.692-3.126 10.986-2.89 11.966.399 1.667 1.141 3.269 2.828 5.513.342.452 1.034 1.38 2.069 2.541a189.83 189.83 0 0 1-13.027 26.492A187.41 187.41 0 0 1 923.744 3.77c-2.362-.4-3.956-.337-5.479 0-.99.217-7.259 1.743-9.506 7.841-1.643 4.462-.426 9.399 2.504 12.512.711.75 2.717 2.883 5.785 3.273 4.769.595 6.838-3.68 9.573-2.771 3.76 1.264 1.301 9.872 6.273 13.376 3.188 2.24 8.201 1.508 11.535-.714 5.035-3.366 5.083-9.376 5.092-10.427.031-3.735-1.558-6.418-3.014-8.786a26.183 26.183 0 0 0-2.265-3.163 190.479 190.479 0 0 1 22.972-42.61c.16.023.32.04.484.059 2.766.261 5.878.518 9.226-1.15.946-.474 6.327-3.148 7.144-9.145.541-3.97-.995-8.781-4.409-10.662-5.332-2.936-11.996 3.052-14.785.226l-.004.01zm247.32 226.881c-1.2-2.617 2.84-5.123 1.74-9.802-.72-3.007-3.05-4.773-3.87-5.398-3.41-2.577-8.46-3.264-12.72-1.162-5.84 2.874-6.69 9.265-6.8 10.268-.19 1.703-.04 3.464.78 6.147.16.541.5 1.65 1.07 3.096a189.74 189.74 0 0 1-36.66 31.871c-2.08-1.18-3.6-1.663-5.15-1.863-1.01-.133-7.42-.833-11.61 4.139-3.06 3.636-3.61 8.693-1.91 12.618.41.945 1.57 3.637 4.32 5.047 4.28 2.182 7.68-1.135 9.94.652 3.1 2.471-2.14 9.727 1.33 14.712 2.24 3.189 7.2 4.213 11.09 3.255 5.88-1.45 7.97-7.083 8.35-8.072 1.3-3.499.72-6.564.16-9.287a26.56 26.56 0 0 0-1.05-3.744 191.08 191.08 0 0 1 36.13-32.239c.15.075.29.146.44.217 2.51 1.189 5.35 2.488 9.07 2.062 1.05-.124 7.02-.807 9.83-6.169 1.86-3.548 2.06-8.596-.51-11.527-4.01-4.573-12.32-1.211-13.98-4.817l.01-.004zM876.948 312.813c1.092-2.665 5.687-1.428 8.356-5.428 1.709-2.577 1.403-5.487 1.296-6.511-.448-4.249-3.396-8.396-7.845-10.068-6.091-2.289-11.339 1.454-12.152 2.058-1.376 1.024-2.557 2.337-3.96 4.768-.28.492-.866 1.494-1.523 2.9a189.995 189.995 0 0 1-29.507-1.53 189.468 189.468 0 0 1-18.834-3.42c-.559-2.324-1.248-3.765-2.162-5.029-.591-.825-4.462-5.979-10.958-5.642-4.75.249-8.817 3.313-10.527 7.225-.408.945-1.585 3.633-.737 6.604 1.332 4.613 6.083 4.83 6.318 7.7.32 3.952-8.573 5.083-9.838 11.026-.804 3.81 1.842 8.125 5.199 10.312 5.079 3.3 10.629.976 11.601.568 3.45-1.446 5.288-3.961 6.899-6.232a27.166 27.166 0 0 0 2.021-3.322 191.693 191.693 0 0 1 27.216.905c7.65.803 14.687 2.009 21.036 3.406.04.155.089.311.137.466.848 2.643 1.838 5.602 4.689 8.023.808.683 5.39 4.573 11.228 2.954 3.867-1.064 7.69-4.373 8.076-8.249.6-6.05-7.534-9.811-6.034-13.484h.005zM1184.27 31.322c.9 2.736-3.4 4.772-2.82 9.544.37 3.07 2.49 5.083 3.24 5.797 3.1 2.94 8.03 4.192 12.5 2.577 6.13-2.204 7.69-8.458 7.92-9.443.38-1.672.43-3.437-.09-6.195-.1-.56-.31-1.695-.72-3.198a190.02 190.02 0 0 1 23.44-17.963c5.73-3.721 11.3-6.897 16.56-9.602 1.94 1.406 3.4 2.058 4.91 2.43.99.244 7.28 1.659 12-2.812 3.46-3.269 4.56-8.236 3.32-12.32-.3-.986-1.16-3.789-3.73-5.5-4.01-2.649-7.77.265-9.81-1.761-2.81-2.803 3.23-9.425.33-14.765-1.86-3.42-6.68-4.99-10.66-4.476-6 .781-8.72 6.148-9.19 7.088-1.69 3.335-1.46 6.44-1.21 9.212.12 1.335.34 2.621.62 3.837A191.2 191.2 0 0 1 1209.59.723a190.781 190.781 0 0 1-18.23 11.044c-.13-.093-.27-.178-.4-.266-2.37-1.46-5.04-3.07-8.78-3.065-1.06.004-7.07.018-10.47 5.03-2.25 3.317-3.01 8.311-.78 11.509 3.47 4.994 12.11 2.586 13.35 6.351l-.01-.004zM984.828 716.425c1.328 2.559-2.588 5.256-1.261 9.877.862 2.967 3.277 4.617 4.134 5.198 3.534 2.409 8.604 2.848 12.759.537 5.69-3.158 6.23-9.58 6.29-10.587.11-1.712-.13-3.459-1.08-6.103a35.77 35.77 0 0 0-1.23-3.038c5.5-6.83 12.2-14.166 20.26-21.489 5.05-4.59 10.04-8.617 14.8-12.135 2.14 1.078 3.69 1.486 5.24 1.61 1.01.085 7.45.471 11.39-4.696 2.88-3.784 3.18-8.858 1.3-12.694-.46-.923-1.75-3.557-4.57-4.83-4.38-1.969-7.61 1.508-9.96-.169-3.22-2.315 1.67-9.819-2.05-14.627-2.38-3.078-7.39-3.854-11.23-2.71-5.81 1.734-7.62 7.465-7.95 8.467-1.12 3.561-.4 6.591.3 9.287.33 1.3.74 2.533 1.23 3.69-4.98 6.33-11.03 13.2-18.3 20.145a191.201 191.201 0 0 1-16.209 13.82c-.147-.07-.298-.133-.444-.199-2.566-1.065-5.465-2.222-9.159-1.615-1.044.173-6.976 1.149-9.524 6.644-1.687 3.633-1.638 8.689 1.07 11.488 4.231 4.373 12.365.607 14.194 4.129zM871.04 547.855c-2.872.217-3.827-4.44-8.604-5.025-3.073-.373-5.537 1.206-6.407 1.76-3.601 2.307-5.994 6.795-5.492 11.519.679 6.466 6.389 9.473 7.29 9.926 1.532.772 3.237 1.237 6.043 1.397.568.031 1.723.102 3.281.062a189.516 189.516 0 0 1 11.863 27.037 187.894 187.894 0 0 1 5.381 18.353c-1.829 1.544-2.81 2.803-3.534 4.187-.47.896-3.352 6.666-.133 12.312 2.353 4.13 6.917 6.387 11.188 6.161 1.03-.058 3.961-.213 6.238-2.302 3.53-3.255 1.594-7.598 4.054-9.092 3.392-2.054 8.391 5.375 14.278 3.841 3.77-.989 6.447-5.287 6.895-9.265.675-6.015-3.893-9.927-4.692-10.614-2.838-2.431-5.914-2.949-8.667-3.366a26.13 26.13 0 0 0-3.88-.315 191.977 191.977 0 0 1-11.393-24.709 191.001 191.001 0 0 1-6.385-20.313c.12-.107.24-.218.356-.333 1.984-1.943 4.186-4.151 5.074-7.784.249-1.029 1.674-6.861-2.388-11.354-2.686-2.976-7.361-4.906-11.002-3.513-5.683 2.178-5.403 11.128-9.364 11.434v-.004zm166.99-38.991c-2.58 1.282-5.21-2.679-9.86-1.428-2.99.807-4.68 3.194-5.28 4.036-2.46 3.491-2.99 8.547-.76 12.734 3.07 5.735 9.49 6.382 10.5 6.462 1.71.138 3.46-.071 6.12-.971.54-.187 1.64-.555 3.07-1.176a189.984 189.984 0 0 1 33.05 35.589c-1.12 2.115-1.55 3.654-1.7 5.207-.1 1.011-.6 7.433 4.5 11.46 3.74 2.945 8.82 3.322 12.69 1.508.93-.443 3.58-1.685 4.91-4.475 2.05-4.342-1.38-7.637.34-9.948 2.37-3.18 9.8 1.832 14.67-1.801 3.12-2.328 3.99-7.318 2.91-11.172-1.64-5.828-7.35-7.74-8.35-8.077-3.54-1.188-6.58-.51-9.29.133a26.17 26.17 0 0 0-3.71 1.167 190.307 190.307 0 0 1-19.85-18.619 190.389 190.389 0 0 1-13.56-16.428c.07-.142.14-.293.2-.444 1.11-2.546 2.32-5.42 1.78-9.119-.15-1.047-1.03-6.99-6.49-9.624-3.61-1.748-8.66-1.783-11.51.873-4.45 4.152-.82 12.339-4.38 14.109v.004zm68.83 339.226c2.89-.027 3.53 4.683 8.25 5.588 3.05.577 5.61-.834 6.52-1.331 3.74-2.062 6.43-6.382 6.25-11.123-.25-6.498-5.74-9.877-6.61-10.392-1.48-.869-3.15-1.45-5.94-1.796-.56-.067-1.71-.218-3.27-.28a190.723 190.723 0 0 1-10.03-27.764 190.62 190.62 0 0 1-4.14-18.673c1.92-1.419 2.99-2.612 3.8-3.938.54-.865 3.79-6.427.96-12.277-2.08-4.28-6.48-6.835-10.75-6.892-1.03-.009-3.97-.053-6.38 1.88-3.74 3.012-2.1 7.474-4.65 8.804-3.53 1.823-8.01-5.925-13.99-4.785-3.83.736-6.78 4.843-7.5 8.786-1.07 5.956 3.22 10.165 3.97 10.906 2.67 2.617 5.71 3.335 8.42 3.939 1.31.292 2.6.479 3.85.572 3.4 7.296 6.8 15.794 9.72 25.414a192.912 192.912 0 0 1 5.01 20.69c-.13.098-.25.204-.38.306-2.11 1.805-4.45 3.863-5.58 7.429-.32 1.007-2.13 6.737 1.62 11.487 2.48 3.149 7.02 5.385 10.74 4.236 5.82-1.792 6.14-10.742 10.11-10.782v-.004zm-141.99-9.403c-2.02-2.054.928-5.784-1.705-9.811-1.696-2.586-4.493-3.451-5.483-3.757-4.085-1.259-9.062-.19-12.352 3.238-4.506 4.693-3.126 10.986-2.89 11.971.399 1.668 1.141 3.269 2.828 5.513.342.452 1.034 1.379 2.069 2.541a189.822 189.822 0 0 1-13.027 26.492 187.35 187.35 0 0 1-10.566 15.949c-2.362-.399-3.956-.337-5.479 0-.99.217-7.259 1.743-9.506 7.842-1.643 4.461-.426 9.398 2.504 12.511.711.75 2.717 2.883 5.785 3.274 4.769.594 6.838-3.682 9.573-2.772 3.76 1.264 1.301 9.872 6.273 13.376 3.188 2.24 8.201 1.508 11.535-.714 5.035-3.366 5.083-9.376 5.092-10.427.031-3.734-1.558-6.418-3.014-8.786a26.254 26.254 0 0 0-2.265-3.163 191.049 191.049 0 0 1 11.553-24.633 191.248 191.248 0 0 1 11.419-17.976c.16.022.32.04.484.058 2.766.261 5.878.519 9.226-1.149.946-.475 6.327-3.149 7.144-9.145.541-3.97-.995-8.782-4.409-10.663-5.332-2.936-11.996 3.052-14.785.226l-.004.005zm-87.922-82.349c1.092-2.666 5.687-1.428 8.356-5.429 1.709-2.577 1.403-5.486 1.296-6.511-.448-4.249-3.396-8.396-7.845-10.068-6.091-2.289-11.339 1.455-12.152 2.058-1.376 1.025-2.557 2.337-3.96 4.768-.28.492-.866 1.495-1.523 2.901-8.769.23-18.705-.125-29.507-1.531a189.767 189.767 0 0 1-18.834-3.419c-.559-2.324-1.248-3.766-2.162-5.03-.591-.825-4.462-5.978-10.958-5.641-4.75.248-8.817 3.313-10.527 7.225-.408.944-1.585 3.632-.737 6.604 1.332 4.612 6.083 4.83 6.318 7.699.32 3.952-8.573 5.083-9.838 11.026-.804 3.81 1.842 8.126 5.199 10.312 5.079 3.3 10.629.976 11.601.568 3.45-1.446 5.288-3.961 6.899-6.232a26.833 26.833 0 0 0 2.021-3.326 191.693 191.693 0 0 1 27.216.905c7.65.803 14.687 2.009 21.036 3.406.04.155.089.311.137.466.848 2.643 1.838 5.601 4.689 8.023.808.683 5.39 4.573 11.228 2.954 3.867-1.064 7.69-4.373 8.076-8.25.6-6.049-7.534-9.81-6.034-13.483l.005.005zm551.862-39.913c1.33 2.559-2.59 5.256-1.26 9.877.86 2.967 3.28 4.617 4.13 5.198 3.54 2.409 8.61 2.848 12.76.537 5.69-3.158 6.23-9.58 6.29-10.587.12-1.712-.12-3.459-1.07-6.103-.2-.532-.59-1.623-1.23-3.038a189.4 189.4 0 0 1 20.25-21.489c5.06-4.59 10.04-8.617 14.8-12.135 2.14 1.078 3.69 1.486 5.24 1.61 1.01.085 7.45.471 11.39-4.696 2.89-3.784 3.18-8.858 1.3-12.694-.46-.923-1.74-3.557-4.56-4.83-4.39-1.969-7.62 1.508-9.97-.169-3.22-2.315 1.67-9.819-2.05-14.627-2.38-3.078-7.39-3.854-11.23-2.71-5.8 1.734-7.62 7.465-7.94 8.467-1.13 3.561-.4 6.591.29 9.287.33 1.3.75 2.533 1.23 3.69a191.22 191.22 0 0 1-18.3 20.145 189.656 189.656 0 0 1-16.21 13.82c-.14-.07-.29-.133-.44-.199-2.57-1.065-5.47-2.222-9.16-1.615-1.04.173-6.98 1.149-9.52 6.644-1.69 3.633-1.64 8.689 1.07 11.488 4.23 4.373 12.36.607 14.19 4.129zm-113.79-168.57c-2.87.217-3.83-4.44-8.6-5.025-3.08-.373-5.54 1.206-6.41 1.76-3.6 2.307-5.99 6.795-5.49 11.519.68 6.466 6.39 9.473 7.29 9.926 1.53.772 3.24 1.237 6.04 1.397.57.031 1.72.102 3.28.062a189.608 189.608 0 0 1 11.87 27.037c2.25 6.445 4 12.601 5.38 18.353-1.83 1.544-2.81 2.803-3.54 4.187-.47.896-3.35 6.666-.13 12.312 2.35 4.13 6.92 6.387 11.19 6.161 1.03-.058 3.96-.213 6.24-2.302 3.53-3.255 1.59-7.598 4.05-9.092 3.39-2.054 8.39 5.375 14.28 3.841 3.77-.989 6.44-5.287 6.89-9.265.68-6.015-3.89-9.927-4.69-10.614-2.84-2.431-5.91-2.949-8.67-3.366a26.003 26.003 0 0 0-3.88-.315 191.854 191.854 0 0 1-11.39-24.709 188.412 188.412 0 0 1-6.38-20.313c.12-.107.24-.218.35-.333 1.99-1.943 4.19-4.151 5.08-7.784.24-1.029 1.67-6.861-2.39-11.354-2.69-2.976-7.36-4.906-11-3.513-5.69 2.178-5.41 11.128-9.37 11.434v-.004zm167-38.991c-2.59 1.282-5.22-2.679-9.87-1.428-2.99.807-4.68 3.194-5.27 4.036-2.47 3.491-3 8.547-.76 12.734 3.06 5.735 9.48 6.382 10.49 6.462 1.71.138 3.47-.071 6.13-.971.53-.187 1.63-.555 3.06-1.176a189.984 189.984 0 0 1 33.05 35.589c-1.11 2.115-1.55 3.654-1.7 5.207-.1 1.011-.6 7.433 4.51 11.46 3.73 2.945 8.81 3.322 12.68 1.508.93-.443 3.59-1.685 4.92-4.475 2.04-4.342-1.39-7.637.33-9.948 2.37-3.18 9.8 1.832 14.68-1.801 3.12-2.328 3.98-7.318 2.9-11.172-1.64-5.828-7.34-7.74-8.34-8.077-3.55-1.188-6.59-.51-9.3.133-1.3.306-2.55.706-3.71 1.167a191.311 191.311 0 0 1-19.85-18.619 190.389 190.389 0 0 1-13.56-16.428c.07-.142.14-.293.21-.444 1.11-2.546 2.32-5.42 1.77-9.119-.15-1.047-1.03-6.99-6.48-9.624-3.61-1.748-8.67-1.783-11.52.873-4.45 4.152-.82 12.339-4.38 14.109l.01.004zm68.83 339.226c2.88-.027 3.52 4.683 8.25 5.588 3.04.577 5.6-.834 6.51-1.33 3.75-2.063 6.43-6.383 6.25-11.124-.25-6.498-5.74-9.877-6.61-10.392-1.48-.869-3.15-1.45-5.94-1.796-.56-.067-1.71-.217-3.26-.28a188.403 188.403 0 0 1-10.03-27.764 187.931 187.931 0 0 1-4.15-18.673c1.93-1.419 2.99-2.612 3.81-3.938.53-.865 3.78-6.427.95-12.277-2.07-4.28-6.47-6.834-10.75-6.892-1.03-.009-3.96-.053-6.37 1.88-3.74 3.012-2.1 7.474-4.66 8.804-3.52 1.823-8.01-5.925-13.99-4.785-3.82.736-6.78 4.843-7.5 8.786-1.07 5.956 3.22 10.166 3.97 10.906 2.67 2.617 5.71 3.336 8.43 3.939 1.31.292 2.59.479 3.84.572a189.913 189.913 0 0 1 14.73 46.104c-.13.098-.25.204-.38.306-2.1 1.805-4.45 3.863-5.58 7.429-.32 1.007-2.13 6.737 1.62 11.488 2.49 3.149 7.02 5.384 10.74 4.235 5.82-1.792 6.14-10.742 10.11-10.782l.01-.004zm-142-9.403c-2.02-2.054.93-5.784-1.7-9.811-1.7-2.586-4.49-3.451-5.48-3.757-4.09-1.259-9.07-.19-12.36 3.238-4.5 4.693-3.12 10.986-2.89 11.971.4 1.668 1.14 3.269 2.83 5.513a39.29 39.29 0 0 0 2.07 2.541 189.307 189.307 0 0 1-13.03 26.492 187.354 187.354 0 0 1-10.56 15.949c-2.37-.399-3.96-.337-5.48 0-.99.217-7.26 1.743-9.51 7.842-1.64 4.461-.42 9.398 2.51 12.511.71.75 2.71 2.883 5.78 3.274 4.77.594 6.84-3.682 9.57-2.772 3.76 1.264 1.3 9.872 6.28 13.376 3.19 2.24 8.2 1.508 11.53-.714 5.04-3.366 5.09-9.376 5.09-10.427.04-3.734-1.55-6.418-3.01-8.786-.7-1.144-1.46-2.2-2.26-3.163a190.334 190.334 0 0 1 22.97-42.609c.16.022.32.04.48.058 2.77.261 5.88.519 9.23-1.149.94-.475 6.32-3.149 7.14-9.145.54-3.97-.99-8.782-4.41-10.663-5.33-2.936-11.99 3.052-14.78.226l-.01.005zm-196.66-216.648c-1.2-2.617 2.84-5.123 1.74-9.802-.72-3.007-3.05-4.773-3.87-5.398-3.41-2.577-8.46-3.264-12.72-1.162-5.84 2.874-6.69 9.265-6.8 10.268-.19 1.703-.04 3.463.78 6.147.16.541.5 1.65 1.07 3.096a189.74 189.74 0 0 1-36.66 31.871c-2.08-1.18-3.6-1.663-5.15-1.863-1.01-.133-7.42-.833-11.61 4.139-3.06 3.636-3.61 8.693-1.91 12.618.41.945 1.57 3.637 4.32 5.047 4.28 2.182 7.68-1.135 9.94.652 3.1 2.471-2.14 9.727 1.33 14.712 2.24 3.189 7.2 4.213 11.09 3.255 5.88-1.45 7.97-7.083 8.35-8.072 1.3-3.499.72-6.564.16-9.287a26.56 26.56 0 0 0-1.05-3.744 191.08 191.08 0 0 1 36.13-32.239c.15.075.29.146.44.217 2.51 1.189 5.35 2.488 9.07 2.062 1.05-.124 7.02-.807 9.83-6.169 1.86-3.548 2.06-8.596-.51-11.527-4.01-4.573-12.32-1.211-13.98-4.817l.01-.004zm108.74 134.299c1.09-2.666 5.69-1.428 8.36-5.429 1.71-2.577 1.4-5.486 1.29-6.511-.44-4.249-3.39-8.396-7.84-10.068-6.09-2.289-11.34 1.455-12.15 2.058-1.38 1.025-2.56 2.337-3.96 4.768-.28.492-.87 1.495-1.53 2.901-8.77.23-18.7-.125-29.5-1.531a190.006 190.006 0 0 1-18.84-3.419c-.56-2.324-1.25-3.766-2.16-5.03-.59-.825-4.46-5.978-10.96-5.641-4.75.248-8.81 3.313-10.52 7.225-.41.944-1.59 3.632-.74 6.604 1.33 4.612 6.08 4.83 6.32 7.699.32 3.952-8.58 5.083-9.84 11.026-.81 3.81 1.84 8.126 5.2 10.312 5.08 3.3 10.63.976 11.6.568 3.45-1.446 5.29-3.961 6.9-6.232a27.318 27.318 0 0 0 2.02-3.326c8.05-.306 17.21-.142 27.21.905 7.65.803 14.69 2.009 21.04 3.406.04.155.09.311.14.466.85 2.643 1.84 5.601 4.69 8.023.8.683 5.39 4.573 11.22 2.954 3.87-1.064 7.69-4.373 8.08-8.25.6-6.049-7.53-9.81-6.03-13.483v.005zM1184.27 918.37c.9 2.737-3.4 4.773-2.82 9.545.37 3.069 2.49 5.083 3.24 5.797 3.1 2.94 8.03 4.191 12.5 2.577 6.13-2.204 7.69-8.458 7.92-9.443.38-1.672.43-3.437-.09-6.196a35.84 35.84 0 0 0-.72-3.198 189.805 189.805 0 0 1 40-27.565c1.94 1.406 3.4 2.058 4.91 2.431.99.244 7.28 1.659 12-2.812 3.46-3.269 4.56-8.236 3.32-12.321-.3-.985-1.16-3.788-3.73-5.5-4.01-2.648-7.77.266-9.81-1.761-2.81-2.803 3.23-9.425.33-14.769-1.86-3.42-6.68-4.99-10.66-4.475-6 .78-8.72 6.147-9.19 7.087-1.69 3.336-1.46 6.44-1.21 9.212.12 1.335.34 2.621.62 3.837-5.92 5.451-13 11.261-21.29 16.951a190.712 190.712 0 0 1-18.23 11.044c-.13-.093-.27-.177-.4-.266-2.37-1.459-5.04-3.069-8.78-3.065-1.06.005-7.07.018-10.47 5.03-2.25 3.317-3.01 8.311-.78 11.509 3.47 4.994 12.11 2.586 13.35 6.351h-.01zm244.54-645.469c1.33 2.559-2.59 5.255-1.26 9.877.86 2.967 3.28 4.617 4.13 5.198 3.54 2.408 8.61 2.847 12.76.537 5.69-3.158 6.23-9.58 6.29-10.587.12-1.712-.12-3.46-1.07-6.103-.2-.532-.59-1.623-1.23-3.038a189.315 189.315 0 0 1 20.25-21.489 190.566 190.566 0 0 1 14.8-12.135c2.14 1.078 3.69 1.486 5.24 1.61 1.01.084 7.45.47 11.39-4.697 2.89-3.783 3.18-8.857 1.3-12.693-.46-.923-1.74-3.558-4.56-4.83-4.39-1.97-7.62 1.508-9.97-.169-3.22-2.315 1.67-9.82-2.05-14.627-2.38-3.079-7.39-3.855-11.23-2.71-5.8 1.734-7.62 7.464-7.94 8.466-1.13 3.562-.4 6.591.29 9.288.33 1.299.75 2.532 1.23 3.69a191.419 191.419 0 0 1-18.3 20.145 189.838 189.838 0 0 1-16.21 13.82c-.14-.071-.29-.133-.44-.199-2.57-1.065-5.47-2.223-9.16-1.615-1.04.173-6.98 1.149-9.52 6.644-1.69 3.633-1.64 8.689 1.07 11.487 4.23 4.374 12.36.608 14.19 4.13zM1315.02 104.33c-2.87.218-3.83-4.44-8.6-5.025-3.08-.372-5.54 1.207-6.41 1.761-3.6 2.306-5.99 6.795-5.49 11.518.68 6.467 6.39 9.474 7.29 9.926 1.53.772 3.24 1.238 6.04 1.397.57.032 1.72.102 3.28.063a189.608 189.608 0 0 1 11.87 27.037c2.25 6.444 4 12.6 5.38 18.353-1.83 1.543-2.81 2.803-3.54 4.187-.47.896-3.35 6.666-.13 12.312 2.35 4.129 6.92 6.387 11.19 6.161 1.03-.058 3.96-.213 6.24-2.302 3.53-3.256 1.59-7.598 4.05-9.093 3.39-2.053 8.39 5.376 14.28 3.841 3.77-.989 6.44-5.287 6.89-9.265.68-6.014-3.89-9.926-4.69-10.613-2.84-2.431-5.91-2.95-8.67-3.367a26.136 26.136 0 0 0-3.88-.315 191.9 191.9 0 0 1-11.39-24.708 188.425 188.425 0 0 1-6.38-20.314c.12-.106.24-.217.35-.333 1.99-1.942 4.19-4.151 5.08-7.783.24-1.029 1.67-6.862-2.39-11.355-2.69-2.976-7.36-4.905-11-3.512-5.69 2.177-5.41 11.128-9.37 11.434v-.005zm167-38.99c-2.59 1.282-5.22-2.679-9.87-1.428-2.99.807-4.68 3.193-5.27 4.036-2.47 3.49-3 8.547-.76 12.734 3.06 5.734 9.48 6.382 10.49 6.462 1.71.137 3.47-.071 6.13-.972.53-.186 1.63-.554 3.06-1.175a189.833 189.833 0 0 1 21.16 20.602 189.756 189.756 0 0 1 11.89 14.986c-1.11 2.116-1.55 3.655-1.7 5.207-.1 1.012-.6 7.434 4.51 11.461 3.73 2.945 8.81 3.322 12.68 1.508.93-.443 3.59-1.685 4.92-4.475 2.04-4.342-1.39-7.638.33-9.948 2.37-3.18 9.8 1.831 14.68-1.801 3.12-2.329 3.98-7.318 2.9-11.172-1.64-5.828-7.34-7.74-8.34-8.077-3.55-1.189-6.59-.51-9.3.133-1.3.306-2.55.705-3.71 1.166a191.154 191.154 0 0 1-19.85-18.619 190.298 190.298 0 0 1-13.56-16.428c.07-.142.14-.293.21-.443 1.11-2.546 2.32-5.42 1.77-9.12-.15-1.046-1.03-6.99-6.48-9.624-3.61-1.747-8.67-1.783-11.52.874-4.45 4.152-.82 12.339-4.38 14.109l.01.004zm68.83 339.225c2.88-.026 3.52 4.684 8.25 5.589 3.04.576 5.6-.834 6.51-1.331 3.75-2.062 6.43-6.382 6.25-11.124-.25-6.497-5.74-9.877-6.61-10.391-1.48-.87-3.15-1.451-5.94-1.797-.56-.066-1.71-.217-3.26-.279a188.418 188.418 0 0 1-10.03-27.765 187.915 187.915 0 0 1-4.15-18.672c1.93-1.419 2.99-2.612 3.81-3.938.53-.865 3.78-6.427.95-12.277-2.07-4.28-6.47-6.835-10.75-6.893-1.03-.008-3.96-.053-6.37 1.881-3.74 3.011-2.1 7.473-4.66 8.804-3.52 1.823-8.01-5.926-13.99-4.786-3.82.737-6.78 4.844-7.5 8.786-1.07 5.957 3.22 10.166 3.97 10.907 2.67 2.617 5.71 3.335 8.43 3.938 1.31.293 2.59.479 3.84.572a189.913 189.913 0 0 1 14.73 46.105c-.13.097-.25.204-.38.306-2.1 1.805-4.45 3.863-5.58 7.429-.32 1.007-2.13 6.737 1.62 11.487 2.49 3.149 7.02 5.384 10.74 4.236 5.82-1.792 6.14-10.742 10.11-10.782l.01-.005zm-142-9.402c-2.02-2.054.93-5.784-1.7-9.811-1.7-2.586-4.49-3.451-5.48-3.757-4.09-1.259-9.07-.191-12.36 3.238-4.5 4.692-3.12 10.986-2.89 11.966.4 1.668 1.14 3.269 2.83 5.513.34.453 1.04 1.38 2.07 2.542a189.3 189.3 0 0 1-13.03 26.491 187.354 187.354 0 0 1-10.56 15.949c-2.37-.399-3.96-.337-5.48 0-.99.218-7.26 1.743-9.51 7.842-1.64 4.462-.42 9.398 2.51 12.512.71.749 2.71 2.883 5.78 3.273 4.77.594 6.84-3.681 9.57-2.772 3.76 1.264 1.3 9.873 6.28 13.377 3.19 2.239 8.2 1.508 11.53-.714 5.04-3.367 5.09-9.377 5.09-10.428.04-3.734-1.55-6.417-3.01-8.786-.7-1.144-1.46-2.2-2.26-3.162a190.28 190.28 0 0 1 22.97-42.61c.16.023.32.04.48.058 2.77.262 5.88.519 9.23-1.149.94-.474 6.32-3.149 7.14-9.145.54-3.97-.99-8.782-4.41-10.663-5.33-2.936-11.99 3.052-14.78.227l-.01.009zm0-443.525c-2.02-2.053.93-5.783-1.7-9.81-1.7-2.586-4.49-3.451-5.48-3.757-4.09-1.26-9.07-.191-12.36 3.238-4.5 4.692-3.12 10.986-2.89 11.966.4 1.667 1.14 3.269 2.83 5.513.34.452 1.04 1.38 2.07 2.541a189.316 189.316 0 0 1-13.03 26.492 187.413 187.413 0 0 1-10.56 15.949c-2.37-.4-3.96-.337-5.48 0-.99.217-7.26 1.743-9.51 7.841-1.64 4.462-.42 9.399 2.51 12.512.71.75 2.71 2.883 5.78 3.273 4.77.595 6.84-3.68 9.57-2.771 3.76 1.264 1.3 9.872 6.28 13.376 3.19 2.24 8.2 1.508 11.53-.714 5.04-3.366 5.09-9.376 5.09-10.427.04-3.735-1.55-6.418-3.01-8.786a26.94 26.94 0 0 0-2.26-3.163 190.314 190.314 0 0 1 22.97-42.61c.16.023.32.04.48.059 2.77.261 5.88.518 9.23-1.15.94-.474 6.32-3.148 7.14-9.145.54-3.97-.99-8.781-4.41-10.662-5.33-2.936-11.99 3.052-14.78.226l-.01.01zm-87.92 361.175c1.09-2.665 5.69-1.428 8.36-5.428 1.71-2.577 1.4-5.487 1.29-6.511-.44-4.249-3.39-8.396-7.84-10.068-6.09-2.289-11.34 1.454-12.15 2.058-1.38 1.024-2.56 2.337-3.96 4.768-.28.492-.87 1.494-1.53 2.9-8.77.231-18.7-.124-29.5-1.53a189.706 189.706 0 0 1-18.84-3.42c-.56-2.324-1.25-3.765-2.16-5.029-.59-.825-4.46-5.979-10.96-5.642-4.75.249-8.81 3.313-10.52 7.225-.41.945-1.59 3.633-.74 6.604 1.33 4.613 6.08 4.83 6.32 7.7.32 3.952-8.58 5.083-9.84 11.026-.81 3.81 1.84 8.125 5.2 10.312 5.08 3.3 10.63.976 11.6.568 3.45-1.446 5.29-3.961 6.9-6.232a27.664 27.664 0 0 0 2.02-3.322c8.05-.306 17.21-.142 27.21.905 7.65.803 14.69 2.009 21.04 3.406.04.155.09.311.14.466.85 2.643 1.84 5.602 4.69 8.023.8.683 5.39 4.573 11.22 2.954 3.87-1.064 7.69-4.373 8.08-8.249.6-6.05-7.53-9.811-6.03-13.484z"/></g><defs><clipPath id="a"><path fill="#fff" d="M0 0h1513v976H0z"/></clipPath></defs></svg>